<svg version="1.2" width="755.868" height="39.99mm" viewBox="0 0 19999 3999" preserveAspectRatio="xMidYMid" fill-rule="evenodd" stroke-width="28.222" stroke-linejoin="round" xmlns="http://www.w3.org/2000/svg" xml:space="preserve"><defs class="ClipPathGroup"><clipPath id="a" clipPathUnits="userSpaceOnUse"><path d="M0 0h19999v3999H0z"/></clipPath></defs><g class="SlideGroup"><g class="Slide" clip-path="url(#a)"><g class="Page"><g class="com.sun.star.drawing.ClosedBezierShape"><path class="BoundingBox" fill="none" d="M2275 999h15450v2003H2275z"/><path fill="#53826A" d="M3251 999h13498c537 0 975 440 975 977v49c0 537-439 976-975 976H3251c-537 0-975-439-975-976v-49c0-537 438-977 975-977Z"/></g><g class="com.sun.star.drawing.ClosedBezierShape"><path class="BoundingBox" fill="none" d="M2780 1351h14441v1299H2780z"/><path fill="#E7E3DD" d="M4042 2267c0 47-6 88-18 125-11 38-26 71-45 99s-41 52-66 72-51 36-78 49-55 22-83 28-54 9-78 9h-883v-235h883c44 0 78-13 102-40s37-62 37-107c0-21-4-41-10-59s-16-34-28-47c-12-14-26-24-44-31-17-7-36-11-57-11h-527c-37 0-77-7-119-20-43-14-83-36-119-66-37-30-68-70-92-119s-37-109-37-180c0-70 13-130 37-178 24-49 55-88 92-119 36-30 76-52 119-66 42-13 82-20 119-20h779v235h-779c-43 0-77 13-101 41-25 27-37 63-37 107 0 46 12 81 37 108 24 26 58 39 101 39h529c24 1 50 4 78 10 27 7 55 17 82 30s53 31 78 51 46 44 66 73c18 28 34 61 45 97 11 37 17 79 17 125Zm1447-373c0 54-6 102-19 144-13 43-30 80-52 112-22 33-48 60-76 83-29 23-59 42-91 56-31 15-63 25-95 32-32 6-62 10-90 10h-517v-236h517c29-2 56-8 80-18s44-24 61-40c17-17 30-38 39-61 10-24 15-52 15-82v-107c-3-30-9-57-19-82-9-24-22-45-38-63-16-17-36-31-59-41s-49-15-79-15h-516c-30 0-53 8-69 25-16 16-24 39-24 70v968h-229v-968c0-60 11-111 32-154 22-42 49-76 80-102 32-26 67-45 105-56 37-12 72-18 104-18h517c52 0 98 7 139 20 41 14 77 32 109 55 31 22 58 48 80 78 22 29 40 60 55 92 14 33 24 65 31 98 6 33 9 64 9 93v107Zm1434 755h-229v-318h-804v318h-229v-649c0-95 16-182 47-262 32-80 76-148 133-205 56-58 123-102 199-134 77-32 161-48 252-48h516c16 0 31 3 45 9s26 14 37 25c10 11 19 24 24 38 6 15 9 30 9 47v1179Zm-1033-554h804v-509h-402c-7 0-22 1-44 3-23 2-49 8-79 16-29 8-60 21-93 39s-64 42-91 72c-27 31-50 70-68 116s-27 102-27 168v95Zm2430 554h-825c-21 0-44-2-69-8-24-5-48-13-72-24-23-11-46-24-68-42-22-17-41-38-58-62s-31-53-41-85-15-69-15-109v-638c0-22 3-45 8-70s13-50 23-74c11-25 25-48 43-70 17-23 37-42 61-60 24-17 51-30 82-41 31-10 66-15 106-15h825v235h-825c-30 0-53 8-69 25-16 16-24 40-24 72v636c0 30 8 53 24 70 17 16 39 25 69 25h825v235Zm1254-530h-722v-238h722v238Zm103 530h-825c-32 0-67-6-104-17-38-12-73-30-105-57-31-26-58-60-80-102-21-42-32-93-32-154v-849c0-17 3-32 9-47 6-14 14-27 24-38 11-11 23-19 37-25s29-9 46-9h1030v235h-917v733c0 31 8 54 24 70 16 17 39 25 69 25h824v235Zm1948-1063h-504v1063h-229V1586h-506v-235h1239v235Zm1429 201c0 54-6 101-19 144s-31 80-53 113c-22 32-47 59-76 82s-59 42-90 57-63 25-95 32c-32 6-62 10-90 10l477 424h-353l-477-424h-165v-235h518c28-3 55-9 79-19 23-10 44-23 61-41 17-17 31-37 40-61s14-51 14-82v-149c0-13-1-23-5-30-3-7-7-12-12-15s-10-6-16-6-11-1-15-1h-755v1063h-229V1470c0-17 3-32 9-47 5-14 13-27 24-38 10-11 22-19 36-25s29-9 46-9h869c51 0 94 10 129 28 35 19 64 43 86 72 22 28 38 59 47 93 10 33 15 64 15 93v150Zm1267 332h-722v-238h722v238Zm103 530h-825c-32 0-66-6-104-17-37-12-72-30-104-57-32-26-59-60-80-102-22-42-32-93-32-154v-849c0-17 3-32 8-47 6-14 14-27 25-38 10-11 22-19 36-25s29-9 46-9h1030v235h-917v733c0 31 8 54 24 70 16 17 39 25 70 25h823v235Zm1259-530h-723v-238h723v238Zm103 530h-826c-31 0-66-6-103-17-38-12-73-30-105-57-32-26-58-60-80-102-21-42-32-93-32-154v-849c0-17 3-32 9-47 6-14 14-27 24-38s22-19 36-25c15-6 30-9 46-9h1031v235h-917v733c0 31 8 54 24 70 15 17 39 25 69 25h824v235Zm1434-382c0 47-6 88-18 125-11 38-26 71-45 99s-41 52-66 72-51 36-78 49-55 22-83 28-54 9-78 9h-883v-235h883c44 0 78-13 102-40s37-62 37-107c0-21-3-41-10-59-6-18-16-34-28-47-12-14-26-24-44-31-17-7-36-11-57-11h-527c-37 0-77-7-119-20-43-14-83-36-119-66-37-30-68-70-92-119s-37-109-37-180c0-70 13-130 37-178 24-49 55-88 92-119 36-30 76-52 119-66 42-13 82-20 119-20h779v235h-779c-43 0-77 13-101 41-25 27-37 63-37 107 0 46 12 81 37 108 24 26 58 39 101 39h529c24 1 50 4 78 10 27 7 55 17 82 30s53 31 78 51 46 44 66 73c18 28 34 61 45 97 11 37 17 79 17 125Z"/></g></g></g></g></svg>